<!DOCTYPE svg PUBLIC "-//W3C//DTD SVG 20010904//EN" "http://www.w3.org/TR/2001/REC-SVG-20010904/DTD/svg10.dtd">
<svg version="1.0" xmlns="http://www.w3.org/2000/svg" width="241px" height="160px" viewBox="0 0 2410 1600" preserveAspectRatio="xMidYMid meet">
<g id="layer101" fill="#aaabaf" stroke="none">
 <path d="M1675 1030 l-470 -470 -465 465 c-373 373 -470 465 -491 465 -35 0 -209 -176 -209 -211 0 -18 135 -160 573 -597 375 -374 579 -572 592 -572 28 0 1175 1147 1175 1175 0 27 -188 215 -215 215 -13 0 -186 -166 -490 -470z m547 313 c26 -26 48 -52 48 -58 0 -13 -1052 -1065 -1065 -1065 -6 0 -248 238 -540 530 l-530 530 50 50 c27 27 56 50 65 50 8 0 222 -207 475 -460 301 -301 467 -460 480 -460 13 0 180 160 485 465 256 256 469 465 475 465 5 0 31 -21 57 -47z"/>
 <path d="M1253 893 c9 -2 25 -2 35 0 9 3 1 5 -18 5 -19 0 -27 -2 -17 -5z"/>
 <path d="M1990 565 l0 -245 -110 0 -110 0 0 90 0 90 -40 0 -40 0 0 -130 0 -130 195 0 195 0 0 285 0 285 -45 0 -45 0 0 -245z"/>
 </g>

</svg>